<svg width="24" height="24" viewBox="0 0 24 24" fill="none" xmlns="http://www.w3.org/2000/svg">
<path d="M9.7838 5.44275C10.6244 3.26787 11.0448 2.18044 11.7276 2.02972C11.9072 1.99009 12.0928 1.99009 12.2723 2.02972C12.9552 2.18044 13.3756 3.26787 14.2162 5.44275C14.6943 6.67955 14.9333 7.29796 15.3805 7.71857C15.506 7.83655 15.6422 7.94162 15.7872 8.03231C16.3041 8.35566 16.9494 8.41563 18.2401 8.53559C20.4249 8.73865 21.5174 8.84018 21.851 9.48658C21.9201 9.62045 21.967 9.7654 21.9899 9.91539C22.1005 10.6396 21.2974 11.3979 19.6913 12.9144L19.2452 13.3355C18.4943 14.0445 18.1188 14.399 17.9017 14.8414C17.7714 15.1067 17.684 15.3925 17.6431 15.6873C17.5749 16.1788 17.6848 16.693 17.9047 17.7215L17.9833 18.089C18.3776 19.9335 18.5748 20.8558 18.3287 21.3091C18.1076 21.7163 17.7004 21.977 17.2505 21.9993C16.7497 22.0241 16.044 21.4273 14.6326 20.2339C13.7028 19.4475 13.2379 19.0544 12.7217 18.9008C12.2501 18.7605 11.7499 18.7605 11.2783 18.9008C10.7621 19.0544 10.2972 19.4475 9.36736 20.2339C7.956 21.4273 7.25033 22.0241 6.74951 21.9993C6.29965 21.977 5.89241 21.7163 5.67132 21.3091C5.42518 20.8558 5.62236 19.9335 6.0167 18.089L6.09527 17.7215C6.31516 16.693 6.42511 16.1788 6.35688 15.6873C6.31595 15.3925 6.2286 15.1067 6.09833 14.8414C5.88116 14.399 5.5057 14.0445 4.75478 13.3355L4.30875 12.9144C2.70256 11.3979 1.89947 10.6396 2.01007 9.91539C2.03297 9.7654 2.07995 9.62045 2.14904 9.48658C2.48264 8.84018 3.57506 8.73865 5.7599 8.53559C7.05056 8.41563 7.69588 8.35566 8.21283 8.03231C8.35783 7.94162 8.49401 7.83655 8.61946 7.71857C9.06672 7.29796 9.30575 6.67955 9.7838 5.44275Z" fill="#403C44" stroke="#403C44" stroke-width="2"/>
</svg>
