<svg width="40" height="40" viewBox="0 0 40 40" fill="none" xmlns="http://www.w3.org/2000/svg">
<path d="M10.3419 2.86291L10.3419 2.86286C10.4727 2.47841 10.8314 2.21875 11.236 2.21875H28.6859C29.0902 2.21875 29.4492 2.47838 29.58 2.86286L29.58 2.86291C30.4865 5.52969 32.6128 7.66632 35.2661 8.57807C35.6499 8.70987 35.9062 9.07422 35.9062 9.48303V13.8974C35.9062 19.2053 34.3156 24.3164 31.3065 28.6779C28.555 32.6661 24.7637 35.7871 20.343 37.7029M10.3419 2.86291L20.343 37.7029M10.3419 2.86291C9.43537 5.52968 7.30913 7.66631 4.65575 8.57807M10.3419 2.86291L4.65575 8.57807M20.343 37.7029C20.1004 37.8082 19.8218 37.8085 19.5785 37.7028M20.343 37.7029L19.5785 37.7028M19.5785 37.7028C15.1575 35.787 11.3666 32.6661 8.61507 28.6779C5.60626 24.3167 4.01562 19.2056 4.01562 13.8974V9.48303C4.01562 9.07422 4.27196 8.70987 4.65575 8.57807M19.5785 37.7028L4.65575 8.57807M18.746 39.6241L18.6963 39.7388L18.746 39.6241C13.9653 37.5521 9.86629 34.1784 6.89152 29.8668C3.64026 25.1544 1.92188 19.6326 1.92188 13.8974V9.48303C1.92188 8.17903 2.7473 7.01973 3.97524 6.59771C6.02162 5.89476 7.65999 4.24687 8.35962 2.18898C8.77945 0.954102 9.93559 0.125 11.236 0.125H28.6859C29.9866 0.125 31.1424 0.954095 31.5623 2.18898C32.2619 4.24687 33.9003 5.89476 35.9466 6.59771C37.1746 7.01972 38 8.17902 38 9.48303V13.8974C38 19.6323 36.2813 25.1544 33.03 29.8668C30.0553 34.1784 25.9562 37.5524 21.1756 39.6241L21.2253 39.7388L21.1756 39.6241C20.7896 39.7914 20.3754 39.875 19.9609 39.875C19.5462 39.875 19.1319 39.7914 18.746 39.6241Z" fill="#121331" stroke="white" stroke-width="0.25"/>
<path d="M24.7366 15.1904V15.3154H24.8616H24.9412C26.4283 15.3154 27.6382 16.5256 27.6382 18.0127V24.7571C27.6382 27.586 25.3366 29.8881 22.5078 29.8881H17.4156C14.587 29.8881 12.2852 27.586 12.2852 24.7571V18.0127C12.2852 16.5256 13.4951 15.3154 14.9821 15.3154H15.0618H15.1868V15.1904V11.853C15.1868 9.22034 17.329 7.07812 19.9617 7.07812C22.5944 7.07812 24.7366 9.22034 24.7366 11.853V15.1904ZM22.5178 15.3157H22.6428V15.1907V11.853C22.6428 10.3747 21.44 9.17188 19.9617 9.17188C18.4833 9.17188 17.2805 10.3747 17.2805 11.853V15.1907V15.3157H17.4055H22.5178ZM22.5078 27.7941C24.1823 27.7941 25.5444 26.4319 25.5444 24.7571V18.0127C25.5444 17.68 25.2739 17.4095 24.9412 17.4095H14.9821C14.6494 17.4095 14.3789 17.68 14.3789 18.0127V24.7571C14.3789 26.4319 15.741 27.7941 17.4156 27.7941H22.5078Z" fill="#3080E8" stroke="white" stroke-width="0.25"/>
<path d="M19.9609 20.3281C19.3137 20.3281 18.7891 20.8527 18.7891 21.5V23.7141C18.7891 24.3613 19.3137 24.8859 19.9609 24.8859C20.6082 24.8859 21.1328 24.3613 21.1328 23.7141V21.5C21.1328 20.8527 20.6082 20.3281 19.9609 20.3281Z" fill="#121331"/>
</svg>
