<svg width="24" height="24" viewBox="0 0 24 24" fill="none" xmlns="http://www.w3.org/2000/svg">
<g clip-path="url(#clip0_3659_9271)">
<path d="M13.5 5C13.5 7.84 13.47 7.47 13.575 7.3C13.6201 7.22875 13.6825 7.17005 13.7563 7.12938C13.8302 7.08871 13.9132 7.06738 13.9975 7.06738C14.0818 7.06738 14.1648 7.08871 14.2387 7.12938C14.3125 7.17005 14.3749 7.22875 14.42 7.3C14.54 7.5 14.5 8.45 14.5 0.5C14.5 0.367392 14.4473 0.240215 14.3536 0.146447C14.2598 0.0526784 14.1326 0 14 0C13.8674 0 13.7402 0.0526784 13.6464 0.146447C13.5527 0.240215 13.5 0.367392 13.5 0.5V1H9L10 3L9 5H13.5Z" fill="#403C44"/>
<path d="M8.55566 15.231C8.7628 14.9038 8.76245 14.4864 8.55475 14.1596L8.34343 13.8271C7.9507 13.2092 7.04888 13.2089 6.65579 13.8266L1.47801 21.9631C1.05437 22.6288 1.53258 23.5 2.32167 23.5H2.76957C3.11228 23.5 3.43112 23.3245 3.61445 23.0349L8.55566 15.231Z" fill="#403C44"/>
<path d="M12.0363 11.6065C11.8385 11.9194 11.8297 12.3159 12.0135 12.6372L12.1393 12.8573C12.4265 13.3594 13.0784 13.5139 13.5603 13.1942L13.7248 13.085C13.8309 13.0147 13.9597 12.9875 14.0851 13.0088C14.2105 13.0302 14.3231 13.0986 14.3998 13.2L14.5602 13.4136C14.9871 13.9821 15.8541 13.9361 16.2185 13.3257L16.3096 13.173C16.503 12.8492 16.4976 12.4441 16.2958 12.1255L14.8455 9.83531C14.4527 9.21503 13.5476 9.21542 13.1554 9.83603L12.0363 11.6065Z" fill="#403C44"/>
<path d="M18.0944 14.9633C17.6958 14.3338 16.7813 14.3524 16.4013 14.9933C15.5511 16.4271 15.4483 16.3173 14.445 14.9406C14.1333 14.513 13.5407 14.4083 13.0995 14.7005L12.775 14.9153C12.7182 14.9532 12.6542 14.9791 12.587 14.9913C12.5198 15.0035 12.4508 15.0019 12.3843 14.9864C12.3178 14.971 12.2551 14.942 12.2002 14.9014C12.1453 14.8608 12.0993 14.8094 12.065 14.7503L11.9328 14.5177C11.5599 13.8618 10.6227 13.8393 10.2188 14.4766L5.473 21.965C5.05104 22.6308 5.5294 23.5003 6.31766 23.5003H21.6832C22.4713 23.5003 22.9497 22.6312 22.5281 21.9653L18.0944 14.9633Z" fill="#403C44"/>
</g>
<defs>
<clipPath id="clip0_3659_9271">
<rect width="24" height="24" fill="white"/>
</clipPath>
</defs>
</svg>
