<svg width="34" height="34" viewBox="0 0 34 34" fill="none" xmlns="http://www.w3.org/2000/svg">
<path d="M32.402 28.6115L32.405 28.6064C33.4058 26.9176 33.9323 24.9955 33.9323 23.0188C33.9323 18.8107 31.5217 15.0542 27.909 13.2205C27.7851 21.3035 21.2317 27.8547 13.146 27.9786C14.9803 31.5902 18.7381 34 22.9476 34C24.9248 34 26.8473 33.4736 28.537 32.4732L28.5421 32.4701L28.5475 32.4718L33.8785 33.9459L32.404 28.6166L32.4023 28.6112L32.402 28.6115Z" fill="#FCC1C5"/>
<path fill-rule="evenodd" clip-rule="evenodd" d="M12.9129 0C5.74888 0 -0.0791016 5.82608 -0.0791016 12.9877C-0.0791016 15.3216 0.542434 17.5939 1.72253 19.5889L-0.0314475 25.9271L6.30915 24.1741C8.3048 25.3538 10.5779 25.9751 12.9129 25.9751C20.0765 25.9751 25.9045 20.149 25.9045 12.9877C25.9045 5.82642 20.0765 0 12.9129 0ZM7.42628 15.0195C6.58996 15.0195 5.91193 14.3416 5.91193 13.5053C5.91193 12.6689 6.58996 11.9914 7.42628 11.9914C8.26259 11.9914 8.94097 12.6692 8.94097 13.5053C8.94097 14.3413 8.26293 15.0195 7.42628 15.0195ZM12.4299 15.0195C11.5935 15.0195 10.9155 14.3416 10.9155 13.5053C10.9155 12.6689 11.5935 11.9914 12.4299 11.9914C13.2662 11.9914 13.9446 12.6692 13.9446 13.5053C13.9446 14.3413 13.2665 15.0195 12.4299 15.0195ZM17.4334 15.0195C16.5971 15.0195 15.9191 14.3416 15.9191 13.5053C15.9191 12.6689 16.5971 11.9914 17.4334 11.9914C18.2698 11.9914 18.9481 12.6692 18.9481 13.5053C18.9481 14.3413 18.2701 15.0195 17.4334 15.0195Z" fill="#FDA0A7"/>
</svg>
