<svg width="34" height="34" viewBox="0 0 34 34" fill="none" xmlns="http://www.w3.org/2000/svg">
<path d="M20.2044 13.902C19.2211 12.919 18.0528 12.2037 16.7754 11.7896L16.7679 11.7872L16.7499 11.7841L16.6002 11.7641L12.8627 11.6787H12.8614L11.1424 11.7889H11.1408L11.1391 11.7896C9.86194 12.2037 8.69569 12.9218 7.71005 13.902L2.57098 19.0128C-0.871966 22.437 -0.871966 28.0021 2.57098 31.4262C6.11119 34.9469 11.706 34.7678 15.0656 31.4262L20.2044 26.3286C20.704 25.8319 21.1308 25.2899 21.4849 24.7174C21.8389 24.1445 22.1199 23.541 22.328 22.9198C22.328 22.9198 24.0401 17.7365 20.2044 13.902ZM11.59 27.9525L11.5907 27.9705C10.0381 29.5144 7.55701 29.4733 6.0459 27.9705C4.52118 26.4537 4.52118 23.9721 6.0459 22.4557L11.2751 17.2867L13.9205 20.1518L13.9212 20.1529H13.9218L16.8325 22.2762L11.59 27.9525ZM20.7768 30.341C20.6557 29.9068 20.1942 29.6525 19.7439 29.7681C19.2936 29.884 19.0269 30.328 19.1473 30.7602L19.5844 32.3249C19.7041 32.7543 20.1646 33.0134 20.6173 32.8978C21.0676 32.7818 21.3342 32.3381 21.2135 31.9056L20.7768 30.341Z" fill="#FCC1C5"/>
<path d="M27.0838 28.4054L25.7642 27.0862C25.3996 26.7217 25.3996 26.1318 25.7642 25.767C26.1288 25.4025 26.7189 25.4025 27.0838 25.767L28.4034 27.0862C28.768 27.4507 28.768 28.0409 28.4034 28.4054C28.0388 28.7699 27.4484 28.7699 27.0838 28.4054Z" fill="#FCC1C5"/>
<path d="M5.84309 8.23354L4.52345 6.91434C4.15885 6.54986 4.15885 5.95962 4.52345 5.59514C4.88805 5.23066 5.47849 5.23066 5.84309 5.59514L7.16271 6.91434C7.52731 7.27882 7.52731 7.86906 7.16271 8.23354C6.79811 8.59802 6.20802 8.59802 5.84342 8.23354H5.84309Z" fill="#FCC1C5"/>
<path d="M29.7666 19.7485C29.8822 19.2984 30.3267 19.0318 30.759 19.1522L32.3245 19.5887C32.7572 19.7071 33.0123 20.1715 32.8976 20.6213C32.782 21.0715 32.3375 21.338 31.9052 21.2173L30.3397 20.7808C29.9101 20.6611 29.6509 20.2007 29.7666 19.7482V19.7485Z" fill="#FCC1C5"/>
<path d="M0.0296298 13.3787C0.145267 12.9286 0.58979 12.662 1.02207 12.7827L2.5876 13.2193C3.01852 13.3369 3.27565 13.8013 3.16069 14.2518C3.04506 14.7017 2.60052 14.9686 2.16824 14.8479L0.602712 14.4113C0.173152 14.2916 -0.0863481 13.8313 0.0296298 13.3787Z" fill="#FCC1C5"/>
<path d="M20.6173 32.8978C20.1646 33.0134 19.7041 32.7543 19.5844 32.3249L19.1473 30.7602C19.0269 30.3281 19.2936 29.884 19.7439 29.7681C20.1942 29.6525 20.6557 29.9068 20.7768 30.341L21.2135 31.9057C21.3342 32.3382 21.0676 32.7819 20.6173 32.8978Z" fill="#FCC1C5"/>
<path d="M12.1499 3.65936L11.7132 2.09434C11.5928 1.66186 11.8595 1.21782 12.3094 1.10222C12.7597 0.987644 13.2226 1.24094 13.3424 1.67512L13.7791 3.24014C13.8995 3.67262 13.6328 4.11666 13.1829 4.23226C12.7302 4.34786 12.2697 4.08878 12.1499 3.65936Z" fill="#FCC1C5"/>
<path d="M31.3505 15.0746L26.0778 20.1977C25.8588 20.4116 25.6421 20.6387 25.4234 20.8679C25.3942 20.8988 25.3646 20.9298 25.335 20.9604C25.0864 21.2208 24.8344 21.4819 24.5732 21.726C24.0504 22.2143 23.4896 22.6362 22.8396 22.8518L22.8148 22.8599L22.8233 22.8351C23.4477 21.01 23.1688 18.5147 22.5434 16.6872L22.5407 16.6794L22.5464 16.6736L27.7767 11.592C28.5562 10.8324 28.946 9.83148 28.946 8.83052C28.946 7.82956 28.5562 6.82826 27.7767 6.0687C27.039 5.34994 26.0326 4.94976 25.2683 4.9501H25.2653L25.2626 4.94874C25.2503 4.94262 25.2262 4.93684 25.1952 4.93208C25.1646 4.92732 25.1286 4.92392 25.0932 4.92222C25.0581 4.92052 25.0241 4.92052 24.9973 4.92256C24.9837 4.92392 24.9724 4.92528 24.9639 4.92732C24.9548 4.92936 24.951 4.93174 24.9503 4.93242L24.9463 4.93616H24.9412C23.8633 4.93616 22.8709 5.32274 22.1053 6.0687L16.8326 11.1918L16.8237 11.1826H16.8234L16.8326 11.1918C15.2735 12.7109 15.2735 15.1963 16.8326 16.7155C18.4025 18.2448 18.4025 20.7468 16.8326 22.2762L16.7901 22.318L16.7846 22.3234L16.7771 22.3207C15.4524 21.8906 14.2559 21.1691 13.2587 20.1981C12.2332 19.1988 11.5068 18.0194 11.0792 16.7705C10.4524 14.939 10.4524 12.9683 11.0792 11.1367C11.5068 9.88792 12.2332 8.70846 13.2587 7.70954L18.5314 2.58608C22.0781 -0.868995 27.8181 -0.855054 31.3505 2.58608C34.8829 6.02722 34.8833 11.6331 31.3505 15.0746Z" fill="#FDA0A7"/>
<path d="M34.0001 15.5728C34.0001 15.5755 33.9997 15.5793 33.9994 15.584C33.9977 15.584 33.9963 15.5837 33.9949 15.5837C33.9939 15.583 33.9925 15.5823 33.9915 15.5816C33.9898 15.5806 33.9884 15.5793 33.9877 15.5786C33.9864 15.5769 33.9857 15.5751 33.9854 15.5745L34.0001 15.5728Z" fill="#FCC1C5"/>
</svg>
