<svg width="34" height="34" viewBox="0 0 34 34" fill="none" xmlns="http://www.w3.org/2000/svg">
<path d="M22.9987 17.07C22.9987 20.2775 20.3209 22.8874 17.0277 22.8874C13.7344 22.8874 11.0566 20.2772 11.0566 17.07C11.0566 13.8628 13.7344 11.2522 17.0277 11.2522C20.3209 11.2522 22.9987 13.8625 22.9987 17.07Z" fill="#FCC1C5"/>
<path d="M33.9739 16.1264C33.9739 16.0863 33.9735 16.0483 33.9735 16.0115C33.9729 15.8627 33.9722 15.743 33.9725 15.6655C33.9729 15.6268 33.9729 15.5985 33.9735 15.5819C33.9739 15.5778 33.9739 15.5744 33.9742 15.5717C33.9746 15.5693 33.9746 15.5662 33.9752 15.5639C33.8399 14.5247 33.0143 13.8003 31.9632 13.8003H30.2723L30.2692 13.7871C29.9785 12.5477 29.4684 11.2954 28.7686 10.1033L28.7618 10.0918L28.7713 10.0823L29.9689 8.88708C30.6973 8.16033 30.7129 6.95904 30.0458 6.18367C29.7316 5.81791 28.3681 4.42592 28.0178 4.09076C27.3075 3.41091 26.0409 3.28548 25.303 4.01836L24.1125 5.20571L24.103 5.21557L24.0914 5.20843C22.972 4.52994 21.736 4.00816 20.4561 3.67299L20.4429 3.66959V1.96284C20.4429 0.907373 19.6132 0.0490658 18.5628 0.0160932C18.0752 0.000796659 16.1176 -0.0107608 15.6334 0.0160932C14.6072 0.0728605 13.7527 0.927089 13.7527 1.96284V3.71684L13.7391 3.7199C12.4959 4.0102 11.2391 4.5194 10.0436 5.21829L10.032 5.22509L10.0225 5.21557L8.82285 4.0187C8.44711 3.64376 7.94488 3.4585 7.44027 3.4585C6.96762 3.4585 6.49293 3.62098 6.11753 3.94221C5.93425 4.09926 5.49357 4.5177 5.05696 4.94057C4.62002 5.36377 4.18715 5.79106 4.01918 5.96578C3.33775 6.67452 3.21125 7.94312 3.94709 8.67871L5.13551 9.86403L5.14537 9.87388L5.13823 9.88544C4.45918 11.0011 3.93587 12.2333 3.60025 13.509L3.59685 13.5219H1.88342C0.83713 13.5219 0.0322679 14.4751 0.00370494 15.469C-0.0102365 15.9555 -0.0231578 17.908 0.00370494 18.3917C0.0604908 19.4179 0.917379 20.2694 1.95312 20.2694H3.64378L3.64684 20.283C3.93791 21.5217 4.44762 22.7743 5.14775 23.9671L5.15455 23.9787L5.14503 23.9879L3.94675 25.183C3.21839 25.9101 3.20343 27.1111 3.87024 27.8864C4.18477 28.2522 5.54865 29.6445 5.89889 29.98C6.61058 30.6609 7.87415 30.7823 8.61339 30.0518L9.80385 28.8644L9.81371 28.8549L9.82527 28.8617C10.9443 29.5398 12.1804 30.062 13.4606 30.3971L13.4735 30.4005V32.1073C13.4735 33.1539 14.43 33.9558 15.4236 33.9843C15.9112 33.9983 17.8688 34.0112 18.3533 33.9843C19.3792 33.9276 20.2337 33.0737 20.2337 32.0376V30.3536L20.2473 30.3505C21.4905 30.0599 22.7473 29.5504 23.9428 28.8518L23.9544 28.845L23.9639 28.8545L25.1636 30.0514C25.8916 30.7775 27.0922 30.7921 27.8689 30.1276C28.2354 29.8141 29.6309 28.4534 29.9672 28.1043C30.3318 27.7253 30.5375 27.1862 30.5375 26.6542C30.5375 26.1912 30.3817 25.7337 30.0393 25.3911L28.8509 24.2061L28.841 24.1962L28.8482 24.1847C29.5272 23.0684 30.0505 21.8365 30.3862 20.5607L30.3896 20.5478H32.103C32.9119 20.5478 33.6777 19.9108 33.9035 19.1524C33.9178 19.1049 33.9297 19.011 33.9392 18.8815C33.9491 18.7527 33.9562 18.5902 33.9616 18.407C33.9725 18.0406 33.9762 17.5905 33.9769 17.1578C33.9773 16.7781 33.9756 16.4116 33.9739 16.1264ZM17.0276 24.6222C12.7785 24.6222 9.321 21.2348 9.321 17.0697C9.321 12.9046 12.7785 9.51696 17.0276 9.51696C21.2766 9.51696 24.7344 12.9046 24.7344 17.0697C24.7344 21.2348 21.2773 24.6222 17.0276 24.6222Z" fill="#FDA0A7"/>
</svg>
