<svg width="34" height="34" viewBox="0 0 34 34" fill="none" xmlns="http://www.w3.org/2000/svg">
<path d="M12.6323 11.6836C12.6323 11.1063 13.1013 10.6375 13.6791 10.6375C14.257 10.6375 14.7256 11.1063 14.7256 11.6836C14.7256 12.2609 14.2566 12.7297 13.6791 12.7297C13.1017 12.7297 12.6323 12.2612 12.6323 11.6836Z" fill="#FDA0A7"/>
<path d="M33.8057 20.902L32.312 17.0075L32.3096 17.001L32.312 16.9949L33.8057 13.1004C33.9669 12.6778 33.8414 12.1987 33.4877 11.9118L30.2493 9.28707L30.2442 9.28299L30.2432 9.27653L29.5878 5.15623C29.5167 4.70881 29.1651 4.35931 28.7172 4.28791L24.5955 3.6331L24.589 3.63208L24.585 3.62664L21.9615 0.387245C21.7591 0.135995 21.4537 0 21.1459 0C21.0201 0 20.8942 0.0227791 20.7749 0.0693572H20.7745L16.8767 1.56462L16.8705 1.567L16.8641 1.56462L12.9683 0.0713972C12.8455 0.024139 12.7186 0.00169993 12.5935 0.00169993C12.2847 0.00169993 11.9857 0.139394 11.7817 0.389284L9.15611 3.62901L9.15202 3.63411L9.14522 3.63513L5.02392 4.29029C4.57805 4.36135 4.22639 4.71289 4.15531 5.15861L3.49994 9.27857L3.49892 9.28503L3.49381 9.28945L0.253372 11.9141C-0.0982893 12.1987 -0.22583 12.6778 -0.0649634 13.1004L1.42874 16.9949L1.43113 17.001L1.42874 17.0075L-0.0649634 20.902C-0.22821 21.3246 -0.0982893 21.8037 0.253372 22.0882L3.49381 24.7109L3.49892 24.715L3.49994 24.7218L4.15531 28.8417C4.22639 29.2895 4.57601 29.641 5.02392 29.7121L9.14522 30.3672L9.15202 30.3683L9.15611 30.3734L11.7817 33.6107C12.0684 33.9667 12.5476 34.0921 12.9706 33.9289L16.8641 32.4378L16.8705 32.4354L16.8767 32.4378L20.7725 33.931C20.8939 33.9769 21.0194 34 21.1473 34C21.455 34 21.7584 33.864 21.9615 33.6111L24.585 30.3734L24.589 30.3683L24.5955 30.3672L28.7172 29.7121C29.1651 29.641 29.5167 29.2895 29.5878 28.8417L30.2432 24.7218L30.2442 24.7153L30.2493 24.7109L33.4877 22.0882C33.739 21.8846 33.8751 21.5851 33.8751 21.277C33.8751 21.1516 33.8523 21.0244 33.8057 20.902ZM13.6791 8.47586C15.4483 8.47586 16.8879 9.91502 16.8879 11.6836C16.8879 13.4522 15.4483 14.8917 13.6791 14.8917C11.9099 14.8917 10.4699 13.4522 10.4699 11.6836C10.4699 9.91502 11.9095 8.47586 13.6791 8.47586ZM20.0624 25.5265C18.2932 25.5265 16.8535 24.0874 16.8535 22.3187C16.8535 20.5501 18.2932 19.111 20.0624 19.111C21.8315 19.111 23.2715 20.5501 23.2715 22.3187C23.2715 24.0874 21.8319 25.5265 20.0624 25.5265ZM23.0722 10.1836L12.4336 25.0726C12.2197 25.3688 11.8888 25.5265 11.5514 25.5265C11.3331 25.5265 11.1147 25.4619 10.9243 25.3256C10.6287 25.1141 10.4713 24.7823 10.4713 24.445C10.4713 24.2274 10.5369 24.0078 10.6736 23.8167L21.3119 8.92736C21.6601 8.44118 22.3349 8.32865 22.8212 8.67679C23.3079 9.02256 23.4181 9.69947 23.0722 10.1836ZM20.0624 21.2726C19.4869 21.2726 19.0159 21.7435 19.0159 22.3187C19.0159 22.894 19.4869 23.3649 20.0624 23.3649C20.6378 23.3649 21.1092 22.894 21.1092 22.3187C21.1092 21.7435 20.6378 21.2726 20.0624 21.2726Z" fill="#FDA0A7"/>
</svg>
