<svg width="55" height="36" viewBox="0 0 55 36" fill="none" xmlns="http://www.w3.org/2000/svg">
<path d="M27.5 35.3416C27.3738 35.3416 27.2491 35.3166 27.1303 35.2653L0.567721 23.8874C0.222981 23.7392 0 23.4003 0 23.0263C0 22.6522 0.222981 22.3118 0.567721 22.1651L3.25523 21.0136C3.73053 20.8097 4.28211 21.0297 4.48602 21.5065C4.68993 21.9818 4.46989 22.5334 3.99312 22.7373L3.31684 23.0277L27.5 33.3846L51.6832 23.0263L51.07 22.7637C50.5947 22.5598 50.3731 22.0096 50.5771 21.5329C50.781 21.0576 51.3311 20.8361 51.8079 21.04L54.4323 22.1637C54.777 22.3118 55 22.6507 55 23.0248C55 23.3989 54.777 23.7392 54.4323 23.8859L27.8697 35.2638C27.7509 35.3166 27.6262 35.3416 27.5 35.3416Z" fill="#121331"/>
<path d="M27.5 29.9822C27.3738 29.9822 27.2491 29.9572 27.1303 29.9059L0.567721 18.528C0.222981 18.3798 0 18.041 0 17.6669C0 17.2928 0.222981 16.9525 0.567721 16.8058L3.25523 15.6542C3.73053 15.4503 4.28211 15.6703 4.48602 16.1471C4.68993 16.6224 4.46989 17.174 3.99312 17.3779L3.31684 17.6669L27.5 28.0252L51.6832 17.6669L51.07 17.4043C50.5947 17.2004 50.3731 16.6503 50.5771 16.1735C50.781 15.6982 51.3311 15.4767 51.8079 15.6806L54.4323 16.8043C54.777 16.9525 55 17.2913 55 17.6654C55 18.0395 54.777 18.3798 54.4323 18.5265L27.8697 29.9044C27.7509 29.9572 27.6262 29.9822 27.5 29.9822Z" fill="#3080E8"/>
<path d="M27.5 24.6302C27.3738 24.6302 27.2491 24.6053 27.1303 24.5539L0.567721 13.176C0.222981 13.0279 0 12.689 0 12.3149C0 11.9408 0.222981 11.6005 0.567721 11.4538L27.1303 0.0759162C27.3665 -0.0253054 27.632 -0.0253054 27.8682 0.0759162L54.4308 11.4538C54.7756 11.602 54.9985 11.9408 54.9985 12.3149C54.9985 12.689 54.7756 13.0293 54.4308 13.176L27.8682 24.5539C27.7509 24.6053 27.6262 24.6302 27.5 24.6302ZM3.31684 12.3149L27.5 22.6733L51.6832 12.3149L27.5 1.95658L3.31684 12.3149Z" fill="#121331"/>
</svg>
