<svg width="50" height="39" viewBox="0 0 50 39" fill="none" xmlns="http://www.w3.org/2000/svg">
<path d="M48.6045 36.779H30.7649C27.181 36.779 24.2656 34.1965 24.2656 31.0223V26.2344H26.2018V31.0223C26.2018 33.1285 28.2489 34.8428 30.7649 34.8428H48.6059V36.779H48.6045Z" fill="#121331"/>
<path d="M19.4231 36.779H1.58203V34.8428H19.4231C21.9391 34.8428 23.9862 33.1285 23.9862 31.0223V26.2344H25.9223V31.0223C25.9223 34.1965 23.007 36.779 19.4231 36.779Z" fill="#121331"/>
<path d="M44.0392 37.3613H43.9844C43.1295 37.3613 42.4358 36.6676 42.4358 35.8127C42.4358 34.9578 43.1295 34.2641 43.9844 34.2641H44.0392C44.8941 34.2641 45.5878 34.9578 45.5878 35.8127C45.5878 36.6676 44.8941 37.3613 44.0392 37.3613ZM35.1881 37.3613H35.1334C34.2785 37.3613 33.5848 36.6676 33.5848 35.8127C33.5848 34.9578 34.2785 34.2641 35.1334 34.2641H35.1881C36.0431 34.2641 36.7368 34.9578 36.7368 35.8127C36.7368 36.6676 36.0431 37.3613 35.1881 37.3613ZM26.7424 35.7831C26.3578 35.7831 25.9718 35.6411 25.6715 35.3542L25.6168 35.3009C25.0074 34.7004 24.9985 33.7198 25.599 33.1104C26.1981 32.501 27.1802 32.4921 27.7896 33.0926L27.8133 33.1163C28.4316 33.7079 28.4537 34.6886 27.8621 35.3068C27.5574 35.6234 27.1506 35.7831 26.7424 35.7831ZM25.2322 27.3551C24.3773 27.3551 23.6836 26.6614 23.6836 25.8065V25.7518C23.6836 24.8968 24.3773 24.2031 25.2322 24.2031C26.0872 24.2031 26.7809 24.8968 26.7809 25.7518V25.8065C26.7809 26.6614 26.0872 27.3551 25.2322 27.3551Z" fill="#3080E8"/>
<path d="M50.0009 38.7515C49.7539 38.8151 49.4935 38.8491 49.2273 38.8491C47.51 38.8491 46.1152 37.4543 46.1152 35.7371C46.1152 34.0198 47.51 32.625 49.2273 32.625C49.495 32.625 49.7539 32.659 50.0009 32.7226V38.7515Z" fill="#121331"/>
<path d="M15.0559 37.3613H15.0012C14.1463 37.3613 13.4526 36.6676 13.4526 35.8127C13.4526 34.9578 14.1463 34.2641 15.0012 34.2641H15.0559C15.9109 34.2641 16.6046 34.9578 16.6046 35.8127C16.6046 36.6676 15.9109 37.3613 15.0559 37.3613ZM6.20492 37.3613H6.1502C5.29527 37.3613 4.60156 36.6676 4.60156 35.8127C4.60156 34.9578 5.29527 34.2641 6.1502 34.2641H6.20492C7.05985 34.2641 7.75356 34.9578 7.75356 35.8127C7.75356 36.6676 7.05985 37.3613 6.20492 37.3613ZM23.4455 35.7831C23.0373 35.7831 22.6305 35.6234 22.3258 35.3054C21.7342 34.6871 21.7563 33.7064 22.3746 33.1148L22.3983 33.0911C23.0077 32.4921 23.9883 32.4995 24.5888 33.1089C25.1894 33.7183 25.1805 34.6989 24.5711 35.2994L24.5164 35.3527C24.2161 35.6411 23.8301 35.7831 23.4455 35.7831ZM24.9557 27.3551C24.1007 27.3551 23.407 26.6614 23.407 25.8065V25.7518C23.407 24.8968 24.1007 24.2031 24.9557 24.2031C25.8106 24.2031 26.5043 24.8968 26.5043 25.7518V25.8065C26.5043 26.6614 25.8106 27.3551 24.9557 27.3551Z" fill="#3080E8"/>
<path d="M0 38.6982C0.303219 38.7973 0.625666 38.8491 0.961425 38.8491C2.67868 38.8491 4.07348 37.4543 4.07348 35.7371C4.07348 34.0198 2.67868 32.625 0.961425 32.625C0.625666 32.625 0.303219 32.6782 0 32.7759V38.6982Z" fill="#121331"/>
<path d="M46.3917 25.16H3.8183C2.06407 25.16 0.636719 23.7326 0.636719 21.9784V14.7988C0.636719 13.0445 2.06407 11.6172 3.8183 11.6172H46.3917C48.1459 11.6172 49.5718 13.0445 49.5718 14.7988V21.9784C49.5732 23.7341 48.1459 25.16 46.3917 25.16ZM3.8183 13.5548C3.13199 13.5548 2.57288 14.1139 2.57288 14.8002V21.9799C2.57288 22.6662 3.13199 23.2253 3.8183 23.2253H46.3917C47.078 23.2253 47.6371 22.6662 47.6371 21.9799V14.8002C47.6371 14.1139 47.0795 13.5548 46.3917 13.5548H3.8183Z" fill="#121331"/>
<path d="M23.8486 15.8984C24.4594 15.8984 24.9549 16.3762 24.9549 16.9649C24.9549 17.5536 24.4594 18.0313 23.8486 18.0313C23.2377 18.0313 22.7422 17.5536 22.7422 16.9649C22.7422 16.3762 23.2377 15.8984 23.8486 15.8984Z" fill="#3080E8"/>
<path d="M27.3056 15.8984C27.9165 15.8984 28.412 16.3762 28.412 16.9649C28.412 17.5536 27.9165 18.0313 27.3056 18.0313C26.6947 18.0313 26.1992 17.5536 26.1992 16.9649C26.1992 16.3762 26.6962 15.8984 27.3056 15.8984Z" fill="#3080E8"/>
<path d="M30.7646 15.8984C31.3755 15.8984 31.871 16.3762 31.871 16.9649C31.871 17.5536 31.3755 18.0313 30.7646 18.0313C30.1537 18.0313 29.6582 17.5536 29.6582 16.9649C29.6582 16.3762 30.1537 15.8984 30.7646 15.8984Z" fill="#3080E8"/>
<path d="M34.2216 15.8984C34.8325 15.8984 35.328 16.3762 35.328 16.9649C35.328 17.5536 34.8325 18.0313 34.2216 18.0313C33.6107 18.0313 33.1152 17.5536 33.1152 16.9649C33.1152 16.3762 33.6122 15.8984 34.2216 15.8984Z" fill="#3080E8"/>
<path d="M37.6786 15.8984C38.2895 15.8984 38.785 16.3762 38.785 16.9649C38.785 17.5536 38.2895 18.0313 37.6786 18.0313C37.0678 18.0313 36.5723 17.5536 36.5723 16.9649C36.5723 16.3762 37.0678 15.8984 37.6786 15.8984Z" fill="#3080E8"/>
<path d="M41.1357 15.8984C41.7466 15.8984 42.2421 16.3762 42.2421 16.9649C42.2421 17.5536 41.7466 18.0313 41.1357 18.0313C40.5248 18.0313 40.0293 17.5536 40.0293 16.9649C40.0293 16.3762 40.5263 15.8984 41.1357 15.8984Z" fill="#3080E8"/>
<path d="M44.5947 15.8984C45.2055 15.8984 45.701 16.3762 45.701 16.9649C45.701 17.5536 45.2055 18.0313 44.5947 18.0313C43.9838 18.0313 43.4883 17.5536 43.4883 16.9649C43.4883 16.3762 43.9838 15.8984 44.5947 15.8984Z" fill="#3080E8"/>
<path d="M23.8486 19.3594C24.4594 19.3594 24.9549 19.8371 24.9549 20.4258C24.9549 21.0145 24.4594 21.4923 23.8486 21.4923C23.2377 21.4923 22.7422 21.0145 22.7422 20.4258C22.7422 19.8386 23.2377 19.3594 23.8486 19.3594Z" fill="#3080E8"/>
<path d="M27.3056 19.3594C27.9165 19.3594 28.412 19.8371 28.412 20.4258C28.412 21.0145 27.9165 21.4923 27.3056 21.4923C26.6947 21.4923 26.1992 21.0145 26.1992 20.4258C26.1992 19.8386 26.6962 19.3594 27.3056 19.3594Z" fill="#3080E8"/>
<path d="M30.7646 19.3594C31.3755 19.3594 31.871 19.8371 31.871 20.4258C31.871 21.0145 31.3755 21.4923 30.7646 21.4923C30.1537 21.4923 29.6582 21.0145 29.6582 20.4258C29.6582 19.8386 30.1537 19.3594 30.7646 19.3594Z" fill="#3080E8"/>
<path d="M34.2216 19.3594C34.8325 19.3594 35.328 19.8371 35.328 20.4258C35.328 21.0145 34.8325 21.4923 34.2216 21.4923C33.6107 21.4923 33.1152 21.0145 33.1152 20.4258C33.1152 19.8386 33.6122 19.3594 34.2216 19.3594Z" fill="#3080E8"/>
<path d="M37.6786 19.3594C38.2895 19.3594 38.785 19.8371 38.785 20.4258C38.785 21.0145 38.2895 21.4923 37.6786 21.4923C37.0678 21.4923 36.5723 21.0145 36.5723 20.4258C36.5723 19.8386 37.0678 19.3594 37.6786 19.3594Z" fill="#3080E8"/>
<path d="M41.1357 19.3594C41.7466 19.3594 42.2421 19.8371 42.2421 20.4258C42.2421 21.0145 41.7466 21.4923 41.1357 21.4923C40.5248 21.4923 40.0293 21.0145 40.0293 20.4258C40.0293 19.8386 40.5263 19.3594 41.1357 19.3594Z" fill="#3080E8"/>
<path d="M44.5947 19.3594C45.2055 19.3594 45.701 19.8371 45.701 20.4258C45.701 21.0145 45.2055 21.4923 44.5947 21.4923C43.9838 21.4923 43.4883 21.0145 43.4883 20.4258C43.4883 19.8386 43.9838 19.3594 44.5947 19.3594Z" fill="#3080E8"/>
<path d="M8.36086 21.6475C6.71312 21.6475 5.37305 20.3074 5.37305 18.6597C5.37305 17.012 6.71312 15.6719 8.36086 15.6719C10.0086 15.6719 11.3487 17.012 11.3487 18.6597C11.3487 20.3074 10.0086 21.6475 8.36086 21.6475ZM8.36086 17.222C7.56805 17.222 6.92316 17.8669 6.92316 18.6597C6.92316 19.4525 7.56805 20.0974 8.36086 20.0974C9.15366 20.0974 9.79856 19.4525 9.79856 18.6597C9.79856 17.8669 9.15366 17.222 8.36086 17.222Z" fill="#3080E8"/>
<path d="M46.3917 13.5398H3.8183C2.06407 13.5398 0.636719 12.1125 0.636719 10.3597V3.1801C0.636719 1.42587 2.06407 0 3.8183 0H46.3917C48.1459 0 49.5718 1.42735 49.5718 3.1801V10.3597C49.5732 12.114 48.1459 13.5398 46.3917 13.5398ZM3.8183 1.93468C3.13199 1.93468 2.57288 2.49231 2.57288 3.1801V10.3597C2.57288 11.046 3.13199 11.6051 3.8183 11.6051H46.3917C47.078 11.6051 47.6371 11.0475 47.6371 10.3597V3.1801C47.6371 2.49379 47.0795 1.93468 46.3917 1.93468H3.8183Z" fill="#121331"/>
<path d="M23.8486 4.28125C24.4594 4.28125 24.9549 4.759 24.9549 5.34769C24.9549 5.93638 24.4594 6.41413 23.8486 6.41413C23.2377 6.41413 22.7422 5.93638 22.7422 5.34769C22.7422 4.759 23.2377 4.28125 23.8486 4.28125Z" fill="#3080E8"/>
<path d="M27.3056 4.28125C27.9165 4.28125 28.412 4.759 28.412 5.34769C28.412 5.93638 27.9165 6.41413 27.3056 6.41413C26.6947 6.41413 26.1992 5.93638 26.1992 5.34769C26.1992 4.759 26.6962 4.28125 27.3056 4.28125Z" fill="#3080E8"/>
<path d="M30.7646 4.28125C31.3755 4.28125 31.871 4.759 31.871 5.34769C31.871 5.93638 31.3755 6.41413 30.7646 6.41413C30.1537 6.41413 29.6582 5.93638 29.6582 5.34769C29.6582 4.759 30.1537 4.28125 30.7646 4.28125Z" fill="#3080E8"/>
<path d="M34.2216 4.28125C34.8325 4.28125 35.328 4.759 35.328 5.34769C35.328 5.93638 34.8325 6.41413 34.2216 6.41413C33.6107 6.41413 33.1152 5.93638 33.1152 5.34769C33.1152 4.759 33.6122 4.28125 34.2216 4.28125Z" fill="#3080E8"/>
<path d="M37.6786 4.28125C38.2895 4.28125 38.785 4.759 38.785 5.34769C38.785 5.93638 38.2895 6.41413 37.6786 6.41413C37.0678 6.41413 36.5723 5.93638 36.5723 5.34769C36.5723 4.759 37.0678 4.28125 37.6786 4.28125Z" fill="#3080E8"/>
<path d="M41.1357 4.28125C41.7466 4.28125 42.2421 4.759 42.2421 5.34769C42.2421 5.93638 41.7466 6.41413 41.1357 6.41413C40.5248 6.41413 40.0293 5.93638 40.0293 5.34769C40.0293 4.759 40.5263 4.28125 41.1357 4.28125Z" fill="#3080E8"/>
<path d="M44.5947 4.28125C45.2055 4.28125 45.701 4.759 45.701 5.34769C45.701 5.93638 45.2055 6.41413 44.5947 6.41413C43.9838 6.41413 43.4883 5.93638 43.4883 5.34769C43.4883 4.759 43.9838 4.28125 44.5947 4.28125Z" fill="#3080E8"/>
<path d="M23.8486 7.74219C24.4594 7.74219 24.9549 8.21994 24.9549 8.80863C24.9549 9.39732 24.4594 9.87507 23.8486 9.87507C23.2377 9.87507 22.7422 9.39732 22.7422 8.80863C22.7422 8.22142 23.2377 7.74219 23.8486 7.74219Z" fill="#3080E8"/>
<path d="M27.3056 7.74219C27.9165 7.74219 28.412 8.21994 28.412 8.80863C28.412 9.39732 27.9165 9.87507 27.3056 9.87507C26.6947 9.87507 26.1992 9.39732 26.1992 8.80863C26.1992 8.22142 26.6962 7.74219 27.3056 7.74219Z" fill="#3080E8"/>
<path d="M30.7646 7.74219C31.3755 7.74219 31.871 8.21994 31.871 8.80863C31.871 9.39732 31.3755 9.87507 30.7646 9.87507C30.1537 9.87507 29.6582 9.39732 29.6582 8.80863C29.6582 8.22142 30.1537 7.74219 30.7646 7.74219Z" fill="#3080E8"/>
<path d="M34.2216 7.74219C34.8325 7.74219 35.328 8.21994 35.328 8.80863C35.328 9.39732 34.8325 9.87507 34.2216 9.87507C33.6107 9.87507 33.1152 9.39732 33.1152 8.80863C33.1152 8.22142 33.6122 7.74219 34.2216 7.74219Z" fill="#3080E8"/>
<path d="M37.6786 7.74219C38.2895 7.74219 38.785 8.21994 38.785 8.80863C38.785 9.39732 38.2895 9.87507 37.6786 9.87507C37.0678 9.87507 36.5723 9.39732 36.5723 8.80863C36.5723 8.22142 37.0678 7.74219 37.6786 7.74219Z" fill="#3080E8"/>
<path d="M41.1357 7.74219C41.7466 7.74219 42.2421 8.21994 42.2421 8.80863C42.2421 9.39732 41.7466 9.87507 41.1357 9.87507C40.5248 9.87507 40.0293 9.39732 40.0293 8.80863C40.0293 8.22142 40.5263 7.74219 41.1357 7.74219Z" fill="#3080E8"/>
<path d="M44.5947 7.74219C45.2055 7.74219 45.701 8.21994 45.701 8.80863C45.701 9.39732 45.2055 9.87507 44.5947 9.87507C43.9838 9.87507 43.4883 9.39732 43.4883 8.80863C43.4883 8.22142 43.9838 7.74219 44.5947 7.74219Z" fill="#3080E8"/>
<path d="M8.36086 10.0303C6.71312 10.0303 5.37305 8.69023 5.37305 7.0425C5.37305 5.39477 6.71312 4.05469 8.36086 4.05469C10.0086 4.05469 11.3487 5.39477 11.3487 7.0425C11.3487 8.69023 10.0086 10.0303 8.36086 10.0303ZM8.36086 5.6048C7.56805 5.6048 6.92316 6.24969 6.92316 7.0425C6.92316 7.83531 7.56805 8.4802 8.36086 8.4802C9.15366 8.4802 9.79856 7.83531 9.79856 7.0425C9.79856 6.24969 9.15366 5.6048 8.36086 5.6048Z" fill="#3080E8"/>
<path d="M21.7663 24.1875C21.6879 24.4759 21.6465 24.7806 21.6465 25.0942C21.6465 26.9534 23.1138 28.471 24.9553 28.5479C25.0041 28.5509 25.0544 28.5524 25.1047 28.5524C25.1476 28.5524 25.1904 28.5509 25.2319 28.5494C27.0822 28.4828 28.5628 26.9608 28.5628 25.0942C28.5628 24.7806 28.5214 24.4759 28.4415 24.1875H21.7663Z" fill="#121331"/>
</svg>
