<svg width="35" height="39" viewBox="0 0 35 39" fill="none" xmlns="http://www.w3.org/2000/svg">
<path d="M23.891 7.87454C23.8011 7.87454 23.7099 7.86347 23.6201 7.83932C23.2017 7.72661 22.9831 7.38144 23.1333 7.06747C23.1923 6.94268 23.2446 6.81588 23.2902 6.68808C23.4149 6.33083 23.4779 5.95849 23.4779 5.58111C23.4779 4.70863 23.1373 3.86733 22.4936 3.14881C21.4073 1.93216 19.5969 1.20659 17.6497 1.20659C15.7991 1.20659 14.041 1.8758 12.9467 2.99786C12.9427 3.00289 12.9373 3.00692 12.9333 3.01195C12.2051 3.76066 11.8202 4.64925 11.8202 5.58212C11.8202 5.90012 11.8658 6.21812 11.957 6.52606C11.9918 6.65085 12.0361 6.77362 12.0911 6.90645C12.2239 7.22445 11.9892 7.56359 11.5654 7.66321C11.1416 7.76385 10.6897 7.58673 10.5569 7.26873C10.4859 7.09766 10.4295 6.93866 10.3839 6.78167C10.2699 6.39322 10.2109 5.98868 10.2109 5.58212C10.2109 4.39062 10.7031 3.25548 11.6351 2.29846C11.6459 2.28639 11.6566 2.27532 11.6687 2.26425C13.0674 0.846325 15.3002 0 17.6497 0C20.1347 0 22.4453 0.925825 23.8293 2.47658C24.6513 3.39436 25.0872 4.46912 25.0872 5.58212C25.0872 6.06315 25.0067 6.53813 24.8458 6.99501C24.7895 7.15602 24.7224 7.31704 24.6487 7.47402C24.5306 7.72058 24.2209 7.87454 23.891 7.87454Z" fill="#3080E8"/>
<path d="M17.4604 38.9987C14.6201 38.9987 11.8508 38.584 9.23043 37.7669L9.21031 37.7609C9.20629 37.7599 9.20093 37.7579 9.1969 37.7568C8.23806 37.457 7.22422 37.2597 6.18491 37.1691L2.49301 36.8501C1.0715 36.7274 0 35.8247 0 34.7509V31.9574C0 27.0183 5.3548 23.001 11.9353 23.001H12.9585C13.4024 23.001 13.7632 23.2717 13.7632 23.6048C13.7632 23.9379 13.4024 24.2086 12.9585 24.2086H11.9353C6.24124 24.2086 1.60926 27.6845 1.60926 31.9574V34.7509C1.60926 35.2108 2.0679 35.5983 2.67673 35.6506L6.36864 35.9696C7.55412 36.0733 8.71145 36.2987 9.80708 36.6398L9.8272 36.6459C9.83122 36.6469 9.83658 36.6489 9.84061 36.6499C12.2666 37.4076 14.8306 37.7911 17.4604 37.7911C20.105 37.7911 22.6811 37.4036 25.1165 36.6378C26.1759 36.3057 27.289 36.0873 28.4275 35.9877L32.3219 35.6496C32.9308 35.5973 33.3907 35.2098 33.3907 34.7499V31.9564C33.3907 27.6835 28.7588 24.2076 23.0647 24.2076H22.0428C21.5989 24.2076 21.2355 23.9369 21.2355 23.6038C21.2355 23.2707 21.5935 23 22.0388 23H23.0647C29.6465 23 35 27.0173 35 31.9564V34.7499C35 35.8237 33.9285 36.7264 32.507 36.8491L28.6126 37.1873C27.6242 37.2728 26.656 37.463 25.736 37.7518C23.1036 38.579 20.3196 38.9987 17.4604 38.9987Z" fill="#121331"/>
<path d="M12.9589 24.2141C12.515 24.2141 12.1543 23.9434 12.1543 23.6103V21.6741C12.1543 21.341 12.515 21.0703 12.9589 21.0703C13.4028 21.0703 13.7636 21.341 13.7636 21.6741V23.6103C13.7636 23.9444 13.4028 24.2141 12.9589 24.2141Z" fill="#121331"/>
<path d="M17.5002 23.3418C12.7355 23.3418 8.87329 20.5422 8.707 16.9687L8.44683 11.3554C8.36369 9.54906 9.23805 7.8393 10.9117 6.53912C12.5853 5.23894 14.8316 4.52344 17.2401 4.52344H17.7604C20.1689 4.52344 22.4165 5.23894 24.0888 6.53912C25.7611 7.8393 26.6368 9.54906 26.5537 11.3554L26.2935 16.9687C26.1272 20.5432 22.265 23.3418 17.5002 23.3418ZM17.2401 5.73104C15.2728 5.73104 13.4355 6.31571 12.069 7.3784C10.7025 8.44008 9.98636 9.83787 10.0547 11.3142L10.3149 16.9275C10.4504 19.8479 13.6058 22.1352 17.5002 22.1352C21.3933 22.1352 24.5501 19.8479 24.6856 16.9275L24.9457 11.3142C25.0141 9.83888 24.2994 8.44109 22.9315 7.3784C21.565 6.31672 19.7277 5.73104 17.7604 5.73104H17.2401V5.73104Z" fill="#121331"/>
<path d="M17.4988 27.9281C14.3057 27.9281 11.4694 26.958 9.91111 25.3328C9.40956 24.8105 9.1266 24.2942 9.06759 23.7971C9.0287 23.465 9.35592 23.1722 9.79846 23.143C10.241 23.1138 10.6313 23.3593 10.6701 23.6914C10.7023 23.9692 10.8861 24.2842 11.2159 24.6273C12.4739 25.9376 14.8207 26.7205 17.4961 26.7205H17.4974C20.1728 26.7205 22.5223 25.9376 23.7802 24.6273C24.1115 24.2842 24.2952 23.9692 24.3274 23.6914C24.3663 23.3593 24.7578 23.1148 25.1991 23.143C25.6416 23.1722 25.9688 23.465 25.9299 23.7971C25.8709 24.2952 25.5866 24.8115 25.0851 25.3338C23.5281 26.958 20.6905 27.9281 17.4988 27.9281Z" fill="#121331"/>
<path d="M22.0449 24.2151C21.601 24.2151 21.2402 23.9444 21.2402 23.6113V21.6741C21.2402 21.341 21.601 21.0703 22.0449 21.0703C22.4887 21.0703 22.8495 21.341 22.8495 21.6741V23.6113C22.8495 23.9454 22.4887 24.2151 22.0449 24.2151Z" fill="#121331"/>
<path d="M26.3052 13.1281H22.8412C22.4953 13.1281 22.1882 12.962 22.0782 12.7165L21.122 10.577L18.9723 12.8715C18.8221 13.0325 18.5754 13.1281 18.3139 13.1281H8.69722C8.484 13.1281 8.27882 13.0647 8.12728 12.951C7.97574 12.8372 7.89125 12.6833 7.89259 12.5233L7.89527 11.1929C7.90332 7.98571 10.6082 5.30887 14.7869 4.37399C16.5517 3.9795 18.4466 3.9795 20.2128 4.37399C24.3915 5.30887 27.0977 7.98571 27.1044 11.1929L27.1071 12.5233C27.1071 12.6833 27.0226 12.8372 26.8724 12.951C26.7236 13.0647 26.5184 13.1281 26.3052 13.1281ZM23.4206 11.9205H25.4992L25.4979 11.1949C25.4912 8.53316 23.2369 6.31017 19.7555 5.53026C18.2884 5.2022 16.7167 5.2022 15.2496 5.53026C11.7669 6.30916 9.51392 8.53316 9.50721 11.1949L9.50587 11.9205H17.8995L20.7237 8.9055C20.8981 8.71933 21.1971 8.62272 21.4975 8.65492C21.7979 8.68813 22.0473 8.84411 22.1439 9.06047L23.4206 11.9205Z" fill="#3080E8"/>
<path d="M17.4999 30.9082C17.0561 30.9082 16.6953 30.6375 16.6953 30.3044V30.2913C16.6953 29.9582 17.0561 29.6875 17.4999 29.6875C17.9438 29.6875 18.3046 29.9582 18.3046 30.2913V30.3044C18.3046 30.6385 17.9452 30.9082 17.4999 30.9082Z" fill="#3080E8"/>
<path d="M17.4999 36.2441C17.0561 36.2441 16.6953 35.9734 16.6953 35.6403V35.6272C16.6953 35.2941 17.0561 35.0234 17.4999 35.0234C17.9438 35.0234 18.3046 35.2941 18.3046 35.6272V35.6403C18.3046 35.9734 17.9452 36.2441 17.4999 36.2441Z" fill="#3080E8"/>
<path d="M7.3695 19.8547C5.74415 19.8547 4.42188 18.8625 4.42188 17.6428V14.5322C4.42188 13.3126 5.74415 12.3203 7.3695 12.3203C8.99485 12.3203 10.3171 13.3126 10.3171 14.5322V17.6428C10.3171 18.8635 8.99485 19.8547 7.3695 19.8547ZM7.3695 13.5299C6.63192 13.5299 6.03113 13.9798 6.03113 14.5342V17.6448C6.03113 18.1983 6.63192 18.6491 7.3695 18.6491C8.10707 18.6491 8.70786 18.1993 8.70786 17.6448V14.5342C8.70786 13.9798 8.10707 13.5299 7.3695 13.5299Z" fill="#121331"/>
<path d="M27.6332 19.8547C26.0078 19.8547 24.6855 18.8625 24.6855 17.6428V14.5322C24.6855 13.3126 26.0078 12.3203 27.6332 12.3203C29.2585 12.3203 30.5808 13.3126 30.5808 14.5322V17.6428C30.5794 18.8635 29.2572 19.8547 27.6332 19.8547ZM27.6332 13.5299C26.8956 13.5299 26.2948 13.9798 26.2948 14.5342V17.6448C26.2948 18.1983 26.8942 18.6491 27.6332 18.6491C28.3721 18.6491 28.9715 18.1993 28.9715 17.6448V14.5342C28.9702 13.9798 28.3707 13.5299 27.6332 13.5299Z" fill="#121331"/>
<path d="M19.4138 20.0381H18.4067C17.5457 20.0381 16.8457 19.5127 16.8457 18.8667C16.8457 18.2206 17.5457 17.6953 18.4067 17.6953H19.4138C20.2748 17.6953 20.9748 18.2206 20.9748 18.8667C20.9748 19.5127 20.2748 20.0381 19.4138 20.0381Z" fill="#3080E8"/>
<path d="M29.775 17.9879C29.3311 17.9879 28.9704 17.7172 28.9704 17.3841V10.9788C28.9704 6.23195 23.8248 2.37065 17.5017 2.37065C14.4495 2.37065 11.5743 3.2683 9.40314 4.89957C7.2293 6.53083 6.03308 8.68941 6.03308 10.9788V17.3841C6.03308 17.7172 5.67234 17.9879 5.22846 17.9879C4.78457 17.9879 4.42383 17.7172 4.42383 17.3841V10.9788C4.42383 8.36638 5.78767 5.90489 8.26459 4.0462C10.7388 2.1875 14.0204 1.16406 17.5017 1.16406C24.7125 1.16406 30.5796 5.56676 30.5796 10.9798V17.3851C30.5796 17.7172 30.2202 17.9879 29.775 17.9879Z" fill="#121331"/>
<path d="M20.089 19.4807C19.6961 19.4807 19.3514 19.2643 19.2937 18.9634C19.2294 18.6334 19.5338 18.3274 19.9737 18.2791L22.0576 18.0517C22.8059 17.9702 23.5087 17.7719 24.147 17.464C25.9641 16.5875 29.3382 15.0196 29.3717 15.0045C29.7499 14.8294 30.2447 14.916 30.4794 15.1998C30.7128 15.4835 30.5961 15.8549 30.2193 16.031C30.1857 16.0471 26.8224 17.6089 25.0173 18.4804C24.1845 18.8819 23.2673 19.1395 22.2896 19.2472L20.2057 19.4747C20.1668 19.4787 20.1279 19.4807 20.089 19.4807Z" fill="#3080E8"/>
<path d="M17.4999 33.6347C17.0561 33.6347 16.6953 33.364 16.6953 33.0309V33.0179C16.6953 32.6848 17.0561 32.4141 17.4999 32.4141C17.9438 32.4141 18.3046 32.6848 18.3046 33.0179V33.0309C18.3046 33.365 17.9452 33.6347 17.4999 33.6347Z" fill="#3080E8"/>
</svg>
